<?xml version="1.0" encoding="UTF-8" standalone="no"?>
<!DOCTYPE svg PUBLIC "-//W3C//DTD SVG 1.1//EN" "http://www.w3.org/Graphics/SVG/1.1/DTD/svg11.dtd">
<svg xmlns="http://www.w3.org/2000/svg" version="1.1" viewBox="0.00 0.00 1454.00 1293.00">
<g stroke-width="2.00" fill="none" stroke-linecap="butt">
<path stroke="#957764" vector-effect="non-scaling-stroke" d="
  M 1104.73 1000.17
  A 0.41 0.41 0.0 0 0 1105.14 999.76
  L 1105.14 300.54
  A 0.41 0.41 0.0 0 0 1104.73 300.13
  L 405.50 300.13
  A 0.41 0.41 0.0 0 0 405.09 300.54
  L 405.09 999.76
  A 0.41 0.41 0.0 0 0 405.50 1000.17
  L 1104.73 1000.17"
/>
<path stroke="#957764" vector-effect="non-scaling-stroke" d="
  M 485.00 846.92
  A 75.08 75.08 0.0 0 0 560.08 922.00
  L 951.92 922.00
  A 75.08 75.08 0.0 0 0 1027.00 846.92
  L 1027.00 455.08
  A 75.08 75.08 0.0 0 0 951.92 380.00
  L 560.08 380.00
  A 75.08 75.08 0.0 0 0 485.00 455.08
  L 485.00 846.92"
/>
</g>
<path fill="#3b2c22" d="
  M 615.00 199.60
  Q 615.02 141.20 614.98 83.12
  C 614.95 42.31 661.74 18.32 694.69 42.86
  Q 709.31 53.74 713.63 71.51
  Q 715.13 77.71 715.09 89.25
  Q 714.90 144.17 715.02 199.83
  A 0.33 0.32 89.1 0 0 715.34 200.15
  L 789.49 200.15
  Q 790.02 200.15 790.02 199.62
  Q 789.95 143.90 790.02 82.12
  C 790.04 58.47 808.47 37.34 831.72 33.73
  C 858.16 29.63 881.95 45.49 888.62 71.43
  Q 890.12 77.25 890.08 88.92
  Q 889.90 141.55 890.04 199.84
  A 0.31 0.30 -90.0 0 0 890.34 200.15
  L 974.48 200.15
  Q 974.99 200.15 974.99 199.64
  Q 975.03 140.80 974.98 83.51
  C 974.95 42.59 1020.64 18.67 1054.07 42.40
  Q 1068.83 52.87 1073.65 71.44
  Q 1075.15 77.21 1075.10 90.72
  Q 1074.87 144.48 1075.05 199.90
  A 0.20 0.19 90.0 0 0 1075.24 200.10
  Q 1099.57 200.25 1120.38 200.06
  Q 1134.56 199.94 1141.71 201.09
  C 1173.93 206.32 1199.07 231.07 1204.13 263.34
  Q 1205.27 270.59 1205.18 282.24
  Q 1204.99 307.07 1205.14 332.52
  Q 1205.15 333.00 1205.63 333.00
  Q 1266.60 333.00 1323.87 333.00
  Q 1335.92 333.00 1346.29 337.97
  C 1367.67 348.21 1379.19 372.75 1372.92 395.75
  C 1366.87 417.92 1347.43 432.96 1324.27 432.98
  Q 1265.51 433.03 1205.64 432.99
  Q 1205.10 432.99 1205.10 433.52
  L 1205.10 514.46
  Q 1205.10 515.01 1205.65 515.01
  Q 1264.90 514.98 1325.42 515.02
  Q 1335.40 515.03 1344.86 519.17
  C 1373.67 531.79 1383.93 567.32 1366.14 593.24
  Q 1355.53 608.69 1337.10 613.49
  Q 1330.80 615.13 1318.11 615.09
  Q 1260.33 614.92 1205.63 614.99
  Q 1205.10 614.99 1205.10 615.52
  L 1205.10 689.69
  Q 1205.10 689.98 1205.40 689.98
  Q 1262.61 690.06 1320.11 689.94
  Q 1329.96 689.92 1335.53 691.12
  C 1372.03 698.95 1387.31 743.12 1363.39 771.90
  Q 1352.31 785.23 1335.25 788.90
  Q 1329.67 790.10 1318.74 790.07
  Q 1259.15 789.92 1205.59 790.03
  Q 1205.10 790.03 1205.10 790.52
  L 1205.10 874.47
  Q 1205.10 875.01 1205.65 875.01
  Q 1263.37 874.98 1324.97 875.01
  C 1350.15 875.03 1371.87 894.10 1374.57 919.22
  C 1377.31 944.70 1361.22 967.78 1336.31 973.66
  Q 1330.19 975.10 1318.28 975.07
  Q 1263.50 974.92 1205.63 975.01
  Q 1205.10 975.01 1205.10 975.54
  Q 1205.07 994.73 1205.15 1016.25
  Q 1205.20 1030.06 1204.24 1036.19
  Q 1199.70 1065.28 1177.11 1083.62
  Q 1156.88 1100.05 1128.95 1100.12
  Q 1103.49 1100.18 1075.65 1100.11
  Q 1074.99 1100.11 1074.99 1100.76
  Q 1075.02 1160.32 1074.99 1220.62
  C 1074.97 1261.55 1027.56 1284.92 994.97 1260.26
  Q 980.47 1249.29 976.34 1231.70
  Q 974.91 1225.59 974.93 1215.58
  Q 975.09 1157.38 974.97 1100.47
  A 0.34 0.34 0.0 0 0 974.63 1100.13
  L 890.69 1100.13
  Q 890.01 1100.13 890.01 1100.81
  Q 890.00 1158.05 889.99 1220.82
  C 889.99 1242.55 875.40 1261.45 855.09 1267.96
  C 827.64 1276.75 798.22 1260.32 791.39 1232.02
  Q 789.90 1225.87 789.93 1214.61
  Q 790.07 1157.39 789.97 1100.46
  A 0.33 0.33 0.0 0 0 789.64 1100.13
  L 715.55 1100.13
  Q 715.00 1100.13 715.00 1100.69
  Q 715.01 1160.96 715.00 1220.26
  C 714.99 1261.60 667.45 1285.23 634.61 1259.99
  Q 620.56 1249.20 616.32 1231.76
  Q 614.86 1225.78 614.91 1212.62
  Q 615.11 1154.43 614.96 1100.45
  A 0.32 0.32 0.0 0 0 614.64 1100.13
  L 533.54 1100.13
  Q 533.05 1100.13 533.05 1100.63
  Q 532.89 1154.42 533.07 1214.56
  Q 533.11 1226.32 531.67 1232.37
  Q 527.97 1248.00 516.13 1258.37
  C 487.86 1283.12 442.79 1269.49 434.28 1232.23
  Q 432.87 1226.07 432.91 1215.25
  Q 433.10 1158.38 432.96 1100.51
  A 0.32 0.32 0.0 0 0 432.64 1100.19
  Q 410.65 1099.99 389.91 1100.20
  Q 376.88 1100.34 369.98 1099.38
  C 331.74 1094.09 304.93 1061.90 305.09 1023.42
  Q 305.17 1003.70 305.10 975.59
  Q 305.10 974.99 304.50 974.99
  Q 243.45 975.02 181.49 974.98
  Q 170.40 974.97 160.02 969.87
  C 132.50 956.36 123.39 921.45 141.09 896.33
  Q 151.93 880.94 170.45 876.37
  Q 176.46 874.88 188.04 874.92
  Q 247.30 875.09 304.60 874.97
  Q 305.12 874.97 305.12 874.45
  L 305.12 790.36
  Q 305.12 789.99 304.75 789.99
  Q 241.63 790.02 180.02 789.94
  Q 174.99 789.93 168.63 788.16
  C 135.39 778.95 121.36 739.54 140.98 711.50
  Q 151.97 695.81 170.82 691.28
  Q 176.39 689.94 185.16 689.96
  Q 246.49 690.06 304.43 690.01
  Q 305.12 690.01 305.12 689.31
  L 305.12 615.34
  A 0.34 0.33 -90.0 0 0 304.79 615.00
  Q 244.09 615.02 181.35 614.98
  C 158.88 614.96 139.68 599.29 133.82 578.20
  C 126.22 550.86 143.14 522.60 170.93 516.27
  Q 176.92 514.90 187.99 514.93
  Q 246.47 515.07 304.86 514.97
  Q 305.12 514.97 305.12 514.70
  L 305.12 433.53
  Q 305.12 432.99 304.58 432.99
  Q 244.42 433.04 180.82 432.94
  Q 175.24 432.93 168.58 431.04
  C 154.90 427.16 143.76 417.68 137.49 405.04
  C 122.90 375.61 140.61 340.59 172.06 334.09
  Q 177.84 332.90 190.60 332.93
  Q 246.54 333.09 304.55 332.97
  Q 305.08 332.97 305.08 332.44
  Q 305.25 310.27 305.05 284.71
  Q 304.95 272.03 305.79 265.78
  C 310.83 228.06 341.83 200.46 380.19 200.21
  Q 405.80 200.04 432.42 200.19
  Q 433.00 200.20 433.00 199.62
  Q 433.01 144.10 432.99 83.47
  C 432.99 57.85 452.73 35.64 478.58 33.60
  C 503.69 31.63 525.48 47.45 531.60 71.61
  Q 533.12 77.56 533.08 88.58
  Q 532.89 142.33 533.04 199.84
  A 0.31 0.30 -90.0 0 0 533.34 200.15
  L 614.45 200.15
  Q 614.99 200.15 615.00 199.60
  Z
  M 1104.73 1000.17
  A 0.41 0.41 0.0 0 0 1105.14 999.76
  L 1105.14 300.54
  A 0.41 0.41 0.0 0 0 1104.73 300.13
  L 405.50 300.13
  A 0.41 0.41 0.0 0 0 405.09 300.54
  L 405.09 999.76
  A 0.41 0.41 0.0 0 0 405.50 1000.17
  L 1104.73 1000.17
  Z"
/>
<path fill="#efc2a5" d="
  M 1104.73 1000.17
  L 405.50 1000.17
  A 0.41 0.41 0.0 0 1 405.09 999.76
  L 405.09 300.54
  A 0.41 0.41 0.0 0 1 405.50 300.13
  L 1104.73 300.13
  A 0.41 0.41 0.0 0 1 1105.14 300.54
  L 1105.14 999.76
  A 0.41 0.41 0.0 0 1 1104.73 1000.17
  Z
  M 485.00 846.92
  A 75.08 75.08 0.0 0 0 560.08 922.00
  L 951.92 922.00
  A 75.08 75.08 0.0 0 0 1027.00 846.92
  L 1027.00 455.08
  A 75.08 75.08 0.0 0 0 951.92 380.00
  L 560.08 380.00
  A 75.08 75.08 0.0 0 0 485.00 455.08
  L 485.00 846.92
  Z"
/>
<path fill="#3b2c22" d="
  M 485.00 846.92
  L 485.00 455.08
  A 75.08 75.08 0.0 0 1 560.08 380.00
  L 951.92 380.00
  A 75.08 75.08 0.0 0 1 1027.00 455.08
  L 1027.00 846.92
  A 75.08 75.08 0.0 0 1 951.92 922.00
  L 560.08 922.00
  A 75.08 75.08 0.0 0 1 485.00 846.92
  Z"
/>
</svg>
