<?xml version="1.0" encoding="UTF-8" standalone="no"?>
<svg
   version="1.1"
   width="2000px"
   height="2000px"
   style="shape-rendering:geometricPrecision; text-rendering:geometricPrecision; image-rendering:optimizeQuality; fill-rule:evenodd; clip-rule:evenodd"
   id="svg4"
   sodipodi:docname="architecture.svg"
   inkscape:version="1.3.2 (091e20ef0f, 2023-11-25, custom)"
   xmlns:inkscape="http://www.inkscape.org/namespaces/inkscape"
   xmlns:sodipodi="http://sodipodi.sourceforge.net/DTD/sodipodi-0.dtd"
   xmlns="http://www.w3.org/2000/svg"
   xmlns:svg="http://www.w3.org/2000/svg">
  <defs
     id="defs4" />
  <sodipodi:namedview
     id="namedview4"
     pagecolor="#ffffff"
     bordercolor="#000000"
     borderopacity="0.25"
     inkscape:showpageshadow="2"
     inkscape:pageopacity="0.0"
     inkscape:pagecheckerboard="0"
     inkscape:deskcolor="#d1d1d1"
     inkscape:zoom="0.588"
     inkscape:cx="1000"
     inkscape:cy="1000"
     inkscape:window-width="2560"
     inkscape:window-height="1372"
     inkscape:window-x="0"
     inkscape:window-y="0"
     inkscape:window-maximized="1"
     inkscape:current-layer="svg4" />
  <g
     id="g1"
     transform="matrix(1.0957744,0,0,1.0957744,-95.678658,-96.00217)">
    <path
       style="opacity:0.996"
       fill="#3a3027"
       d="m 720.5,383.5 c 30.093,-2.038 49.259,11.295 57.5,40 0.5,42.332 0.667,84.665 0.5,127 27.333,0 54.667,0 82,0 -0.479,-43.714 0.021,-87.381 1.5,-131 11.098,-28.804 31.931,-40.304 62.5,-34.5 17.5,5.5 29,17 34.5,34.5 1.479,43.619 1.979,87.286 1.5,131 25,0 50,0 75,0 -0.48,-43.714 0.02,-87.381 1.5,-131 11.1,-28.804 31.93,-40.304 62.5,-34.5 17.5,5.5 29,17 34.5,34.5 1.48,43.619 1.98,87.286 1.5,131 28.33,0 56.67,0 85,0 -0.48,-43.714 0.02,-87.381 1.5,-131 11.1,-28.804 31.93,-40.304 62.5,-34.5 17.5,5.5 29,17 34.5,34.5 1.48,43.619 1.98,87.286 1.5,131 24.04,-0.45 48.04,0.05 72,1.5 25.16,6.493 43,21.659 53.5,45.5 1.8,4.875 3.14,9.875 4,15 1.4,23.638 1.9,47.304 1.5,71 44.38,-0.479 88.71,0.021 133,1.5 22.84,8.017 34.84,24.184 36,48.5 -1.16,24.316 -13.16,40.483 -36,48.5 -44.29,1.479 -88.62,1.979 -133,1.5 0,27.333 0,54.667 0,82 44.38,-0.479 88.71,0.021 133,1.5 28.8,11.098 40.3,31.931 34.5,62.5 -5.5,17.5 -17,29 -34.5,34.5 -44.29,1.479 -88.62,1.979 -133,1.5 0,25 0,50 0,75 44.38,-0.48 88.71,0.02 133,1.5 28.8,11.1 40.3,31.93 34.5,62.5 -5.5,17.5 -17,29 -34.5,34.5 -44.29,1.48 -88.62,1.98 -133,1.5 0,28.33 0,56.67 0,85 44.38,-0.48 88.71,0.02 133,1.5 28.8,11.1 40.3,31.93 34.5,62.5 -5.5,17.5 -17,29 -34.5,34.5 -44.29,1.48 -88.62,1.98 -133,1.5 0.17,18.34 0,36.67 -0.5,55 -4.4,37.98 -25.23,61.15 -62.5,69.5 -22.63,1.41 -45.3,1.91 -68,1.5 0.48,44.71 -0.02,89.38 -1.5,134 -11.99,29.24 -33.49,40.41 -64.5,33.5 -15.92,-6.26 -26.76,-17.42 -32.5,-33.5 -1.48,-44.62 -1.98,-89.29 -1.5,-134 -28.33,0 -56.67,0 -85,0 0.48,44.71 -0.02,89.38 -1.5,134 -11.99,29.24 -33.49,40.41 -64.5,33.5 -15.92,-6.26 -26.76,-17.42 -32.5,-33.5 -1.48,-44.62 -1.98,-89.29 -1.5,-134 -25,0 -50,0 -75,0 0.479,44.71 -0.021,89.38 -1.5,134 -11.987,29.24 -33.487,40.41 -64.5,33.5 -15.924,-6.26 -26.757,-17.42 -32.5,-33.5 -1.479,-44.62 -1.979,-89.29 -1.5,-134 -27.333,0 -54.667,0 -82,0 0.479,44.71 -0.021,89.38 -1.5,134 -11.098,28.8 -31.931,40.3 -62.5,34.5 -17.5,-5.5 -29,-17 -34.5,-34.5 -1.479,-44.62 -1.979,-89.29 -1.5,-134 -22.03,0.39 -44.03,-0.11 -66,-1.5 -29.928,-6.59 -49.761,-24.43 -59.5,-53.5 -0.794,-2.97 -1.461,-5.97 -2,-9 -0.5,-20.66 -0.667,-41.33 -0.5,-62 -45.714,0.48 -91.38,-0.02 -137,-1.5 -28.804,-11.1 -40.304,-31.93 -34.5,-62.5 5.5,-17.5 17,-29 34.5,-34.5 45.62,-1.48 91.286,-1.98 137,-1.5 0,-28.33 0,-56.67 0,-85 -45.714,0.48 -91.38,-0.02 -137,-1.5 -28.804,-11.1 -40.304,-31.93 -34.5,-62.5 5.5,-17.5 17,-29 34.5,-34.5 45.62,-1.48 91.286,-1.98 137,-1.5 0,-25 0,-50 0,-75 -45.714,0.48 -91.38,-0.02 -137,-1.5 -28.804,-11.098 -40.304,-31.931 -34.5,-62.5 5.5,-17.5 17,-29 34.5,-34.5 45.62,-1.48 91.286,-1.98 137,-1.5 0,-27.333 0,-54.667 0,-82 -45.714,0.48 -91.38,-0.02 -137,-1.5 -22.867,-8.042 -34.867,-24.208 -36,-48.5 1.133,-24.292 13.133,-40.458 36,-48.5 45.62,-1.48 91.286,-1.98 137,-1.5 -0.167,-23.002 0,-46.002 0.5,-69 6.308,-32.642 25.475,-53.475 57.5,-62.5 23.295,-1.437 46.628,-1.937 70,-1.5 -0.479,-43.714 0.021,-87.381 1.5,-131 6.68,-19.745 20.18,-31.745 40.5,-36 z"
       id="path1" />
  </g>
  <g
     id="g2"
     transform="matrix(1.0957744,0,0,1.0957744,-95.678658,-96.00217)">
    <path
       style="opacity:1"
       fill="#cdaf95"
       d="m 1350.5,651.5 c -233,0 -466,0 -699,0 0,233 0,466 0,699 -1,-233.17 -1.333,-466.499 -1,-700 233.501,-0.333 466.83,0 700,1 z"
       id="path2" />
  </g>
  <g
     id="g3"
     transform="matrix(1.0957744,0,0,1.0957744,-95.678658,-96.00217)">
    <path
       style="opacity:1"
       fill="#e2c0a4"
       d="m 1350.5,651.5 c 0,233 0,466 0,699 -233,0 -466,0 -699,0 0,-233 0,-466 0,-699 233,0 466,0 699,0 z"
       id="path3" />
  </g>
  <g
     id="g4"
     transform="matrix(1.0957744,0,0,1.0957744,-95.678658,-96.00217)">
    <path
       style="opacity:1"
       fill="#3a3027"
       d="m 794.5,730.5 c 137,-0.167 274,0 411,0.5 36.52,6.169 58.68,27.336 66.5,63.5 0.67,137 0.67,274 0,411 -6.17,38.17 -28.33,60.33 -66.5,66.5 -137,0.67 -274,0.67 -411,0 -36.164,-7.82 -57.331,-29.98 -63.5,-66.5 -0.667,-137 -0.667,-274 0,-411 7.347,-35.18 28.513,-56.513 63.5,-64 z"
       id="path4" />
  </g>
</svg>
