<?xml version="1.0" encoding="UTF-8" standalone="no"?>
<svg
   version="1.1"
   width="2000px"
   height="2000px"
   style="shape-rendering:geometricPrecision; text-rendering:geometricPrecision; image-rendering:optimizeQuality; fill-rule:evenodd; clip-rule:evenodd"
   id="svg1"
   sodipodi:docname="branch.svg"
   inkscape:version="1.3.2 (091e20ef0f, 2023-11-25, custom)"
   xmlns:inkscape="http://www.inkscape.org/namespaces/inkscape"
   xmlns:sodipodi="http://sodipodi.sourceforge.net/DTD/sodipodi-0.dtd"
   xmlns="http://www.w3.org/2000/svg"
   xmlns:svg="http://www.w3.org/2000/svg">
  <defs
     id="defs1" />
  <sodipodi:namedview
     id="namedview1"
     pagecolor="#ffffff"
     bordercolor="#000000"
     borderopacity="0.25"
     inkscape:showpageshadow="2"
     inkscape:pageopacity="0.0"
     inkscape:pagecheckerboard="0"
     inkscape:deskcolor="#d1d1d1"
     inkscape:zoom="0.588"
     inkscape:cx="1000"
     inkscape:cy="863.94558"
     inkscape:window-width="2560"
     inkscape:window-height="1372"
     inkscape:window-x="0"
     inkscape:window-y="0"
     inkscape:window-maximized="1"
     inkscape:current-layer="svg1" />
  <g
     id="g1"
     transform="matrix(1.2830123,0,0,1.2830123,-291.17881,-282.53805)">
    <path
       style="opacity:0.991"
       fill="#393026"
       d="m 730.5,510.5 c 31.067,-3.065 50.9,10.269 59.5,40 0.333,182.667 0.667,365.333 1,548 70.089,21.76 116.756,67.42 140,137 54.497,-9.84 106,-28.01 154.5,-54.5 92.17,-55.58 150.67,-136.08 175.5,-241.5 2.38,-10.258 4.38,-20.591 6,-31 0.81,-2.402 0.65,-4.735 -0.5,-7 -70.3,-21.799 -116.47,-67.799 -138.5,-138 -18.29,-78.099 1.21,-144.932 58.5,-200.5 60.56,-50.109 128.23,-62.442 203,-37 67.4,28.076 108.57,77.909 123.5,149.5 10.41,71.767 -10.42,132.6 -62.5,182.5 -23.24,20.46 -49.91,34.96 -80,43.5 -10.68,91.599 -43.18,174.27 -97.5,248 -59.08,73.71 -133.25,126.54 -222.5,158.5 -38.75,13.61 -78.421,23.61 -119,30 -22.278,75.28 -71.278,123.28 -147,144 -75.315,14.56 -139.481,-5.61 -192.5,-60.5 -45.621,-54.16 -59.954,-115.83 -43,-185 22.363,-71.53 69.529,-117.53 141.5,-138 -0.167,-182.667 0,-365.334 0.5,-548 5.348,-21.181 18.515,-34.514 39.5,-40 z m 586,103 c 43.01,1.886 73.51,22.219 91.5,61 15.12,45.963 3.95,84.13 -33.5,114.5 -34.59,22.385 -69.92,23.718 -106,4 -35.98,-24.472 -50.82,-58.306 -44.5,-101.5 13.02,-47.188 43.85,-73.188 92.5,-78 z m -579,579 c 43.011,1.89 73.511,22.22 91.5,61 15.12,45.96 3.954,84.13 -33.5,114.5 -34.591,22.38 -69.924,23.72 -106,4 -35.982,-24.47 -50.816,-58.31 -44.5,-101.5 13.018,-47.19 43.851,-73.19 92.5,-78 z"
       id="path1" />
  </g>
</svg>
