<?xml version="1.0" encoding="UTF-8" standalone="no"?>
<!DOCTYPE svg PUBLIC "-//W3C//DTD SVG 1.1//EN" "http://www.w3.org/Graphics/SVG/1.1/DTD/svg11.dtd">
<svg xmlns="http://www.w3.org/2000/svg" version="1.1" viewBox="0.00 0.00 1017.00 1002.00">
<path fill="#3b2c22" d="
  M 754.51 403.48
  C 699.43 388.55 653.93 351.51 628.55 300.53
  C 600.97 245.16 601.19 179.14 629.29 123.97
  C 669.17 45.65 755.31 3.21 841.86 19.51
  Q 886.63 27.95 923.19 55.47
  C 1020.55 128.77 1028.84 271.02 941.15 355.39
  Q 905.96 389.24 856.36 403.27
  Q 855.88 403.41 855.83 403.91
  C 847.29 481.61 821.21 556.82 779.16 622.56
  C 742.94 679.18 692.64 726.90 634.64 762.72
  C 569.50 802.96 494.45 828.00 417.78 840.04
  Q 417.22 840.13 417.07 840.67
  Q 397.31 912.98 337.16 954.57
  Q 303.20 978.05 261.93 985.66
  C 201.08 996.89 139.50 979.28 93.45 937.70
  C 49.97 898.42 26.15 840.58 29.30 781.96
  C 33.93 695.62 93.18 623.22 176.67 601.22
  Q 177.02 601.12 177.02 600.76
  Q 176.98 334.91 177.03 62.41
  C 177.03 43.61 188.26 26.41 204.92 18.17
  C 234.56 3.52 268.97 21.10 275.90 52.69
  Q 277.08 58.08 277.07 71.57
  Q 276.91 336.84 277.03 601.28
  Q 277.04 601.63 277.37 601.72
  Q 338.12 618.72 378.20 667.27
  Q 404.56 699.21 415.58 738.24
  A 0.46 0.45 77.3 0 0 416.09 738.57
  C 504.60 722.44 589.86 686.83 652.72 621.30
  C 708.84 562.79 742.78 487.91 754.54 407.28
  Q 754.77 405.71 754.92 404.07
  Q 754.97 403.60 754.51 403.48
  Z
  M 901.96 213.00
  A 96.96 96.96 0.0 0 0 805.00 116.04
  A 96.96 96.96 0.0 0 0 708.04 213.00
  A 96.96 96.96 0.0 0 0 805.00 309.96
  A 96.96 96.96 0.0 0 0 901.96 213.00
  Z
  M 322.96 792.00
  A 96.96 96.96 0.0 0 0 226.00 695.04
  A 96.96 96.96 0.0 0 0 129.04 792.00
  A 96.96 96.96 0.0 0 0 226.00 888.96
  A 96.96 96.96 0.0 0 0 322.96 792.00
  Z"
/>
</svg>
