<?xml version="1.0" encoding="UTF-8"?>
<!DOCTYPE svg PUBLIC "-//W3C//DTD SVG 1.1//EN" "http://www.w3.org/Graphics/SVG/1.1/DTD/svg11.dtd">
<svg xmlns="http://www.w3.org/2000/svg" version="1.1" width="1221px" height="654px" style="shape-rendering:geometricPrecision; text-rendering:geometricPrecision; image-rendering:optimizeQuality; fill-rule:evenodd; clip-rule:evenodd" xmlns:xlink="http://www.w3.org/1999/xlink">
<g><path style="opacity:0.98" fill="#392c23" d="M -0.5,-0.5 C 19.5,-0.5 39.5,-0.5 59.5,-0.5C 59.3333,86.5006 59.5,173.501 60,260.5C 95.9701,209.965 145.137,182.132 207.5,177C 281.073,171.178 342.907,195.012 393,248.5C 428.546,292.3 445.713,342.633 444.5,399.5C 445.519,470.599 419.519,529.433 366.5,576C 309.654,618.307 246.321,632.307 176.5,618C 125.762,606.402 86.2624,578.902 58,535.5C 57.5,563.498 57.3334,591.498 57.5,619.5C 38.1667,619.5 18.8333,619.5 -0.5,619.5C -0.5,412.833 -0.5,206.167 -0.5,-0.5 Z M 202.5,229.5 C 258.523,224.221 305.689,241.888 344,282.5C 374.787,320.606 388.121,364.273 384,413.5C 380.571,469.484 356.071,513.317 310.5,545C 269.873,568.77 226.54,575.437 180.5,565C 112.421,545.388 72.588,500.555 61,430.5C 53.4937,382.364 62.4937,337.697 88,296.5C 116.413,257.604 154.58,235.271 202.5,229.5 Z"/></g>
<g><path style="opacity:0.982" fill="#392c23" d="M 1220.5,590.5 C 1220.5,591.167 1220.5,591.833 1220.5,592.5C 1195.81,612.234 1167.48,622.401 1135.5,623C 1106.23,624.956 1078.56,619.29 1052.5,606C 1018.75,583.362 1000.92,551.529 999,510.5C 998.5,417.167 998.333,323.834 998.5,230.5C 972.5,230.5 946.5,230.5 920.5,230.5C 920.5,213.833 920.5,197.167 920.5,180.5C 946.5,180.5 972.5,180.5 998.5,180.5C 998.5,148.167 998.5,115.833 998.5,83.5C 1018.5,83.5 1038.5,83.5 1058.5,83.5C 1058.5,115.833 1058.5,148.167 1058.5,180.5C 1103.17,180.5 1147.83,180.5 1192.5,180.5C 1192.5,197.167 1192.5,213.833 1192.5,230.5C 1147.83,230.5 1103.17,230.5 1058.5,230.5C 1058.33,320.501 1058.5,410.501 1059,500.5C 1064.24,550.561 1092.08,574.061 1142.5,571C 1163.9,569.706 1182.74,562.206 1199,548.5C 1205.93,562.686 1213.09,576.686 1220.5,590.5 Z"/></g>
<g><path style="opacity:0.995" fill="#3a2c24" d="M 788.5,653.5 C 727.167,653.5 665.833,653.5 604.5,653.5C 549.522,647.271 506.689,621.271 476,575.5C 461.51,552.215 453.177,526.881 451,499.5C 450.333,435.5 450.333,371.5 451,307.5C 457.016,249.888 484.516,206.055 533.5,176C 552.458,165.014 572.792,158.014 594.5,155C 628.479,153.87 662.479,153.37 696.5,153.5C 730.521,153.37 764.521,153.87 798.5,155C 865.157,166.729 910.323,204.229 934,267.5C 938.204,280.521 940.871,293.855 942,307.5C 942.667,371.5 942.667,435.5 942,499.5C 935.984,557.112 908.484,600.945 859.5,631C 837.316,643.621 813.649,651.121 788.5,653.5 Z"/></g>
<g><path style="opacity:1" fill="#eec1a4" d="M 711.5,358.5 C 672.23,317.729 632.397,277.396 592,237.5C 580.939,225.943 570.106,214.277 559.5,202.5C 574.343,195.276 590.01,190.776 606.5,189C 664.833,188.333 723.167,188.333 781.5,189C 807.899,190.576 831.733,199.076 853,214.5C 853.667,215.167 853.667,215.833 853,216.5C 805.605,263.728 758.438,311.062 711.5,358.5 Z"/></g>
<g><path style="opacity:1" fill="#da9168" d="M 559.5,202.5 C 570.106,214.277 580.939,225.943 592,237.5C 632.397,277.396 672.23,317.729 711.5,358.5C 706.161,365.018 700.161,370.518 693.5,375C 640.986,322.653 588.653,270.153 536.5,217.5C 543.683,211.743 551.35,206.743 559.5,202.5 Z"/></g>
<g><path style="opacity:1" fill="#db9268" d="M 899.5,277.5 C 850.728,326.772 801.728,375.938 752.5,425C 750.593,426.122 748.593,426.955 746.5,427.5C 741.535,423.037 736.702,418.37 732,413.5C 731.333,412.5 731.333,411.5 732,410.5C 784.014,358.32 836.18,306.32 888.5,254.5C 893.115,261.662 896.782,269.328 899.5,277.5 Z"/></g>
<g><path style="opacity:1" fill="#edc0a4" d="M 640.5,393.5 C 593.446,442.554 545.446,490.554 496.5,537.5C 490.645,523.427 487.145,508.761 486,493.5C 485.333,432.5 485.333,371.5 486,310.5C 487.788,291.639 493.288,273.972 502.5,257.5C 503.002,256.479 503.668,256.312 504.5,257C 550.035,302.368 595.368,347.868 640.5,393.5 Z"/></g>
<g><path style="opacity:1" fill="#edc1a4" d="M 899.5,277.5 C 903.717,288.413 906.217,299.746 907,311.5C 907.667,372.833 907.667,434.167 907,495.5C 904.555,519.842 896.388,542.009 882.5,562C 881.833,562.667 881.167,562.667 880.5,562C 835.632,517.299 790.965,472.465 746.5,427.5C 748.593,426.955 750.593,426.122 752.5,425C 801.728,375.938 850.728,326.772 899.5,277.5 Z"/></g>
<g><path style="opacity:1" fill="#db9268" d="M 640.5,393.5 C 647.35,399.171 653.183,405.505 658,412.5C 608.653,462.014 559.153,511.347 509.5,560.5C 504.395,553.293 500.062,545.626 496.5,537.5C 545.446,490.554 593.446,442.554 640.5,393.5 Z"/></g>
<g><path style="opacity:1" fill="#db9268" d="M 821.5,609.5 C 774.562,563.062 727.728,516.395 681,469.5C 679.906,467.922 679.072,466.255 678.5,464.5C 683.797,458.702 689.297,453.035 695,447.5C 744.667,497.167 794.333,546.833 844,596.5C 844.089,598.113 843.255,599.28 841.5,600C 834.928,603.453 828.262,606.62 821.5,609.5 Z"/></g>
<g><path style="opacity:1" fill="#eec1a4" d="M 678.5,464.5 C 679.072,466.255 679.906,467.922 681,469.5C 727.728,516.395 774.562,563.062 821.5,609.5C 808.623,614.318 795.29,617.151 781.5,618C 723.167,618.667 664.833,618.667 606.5,618C 584.703,615.68 564.703,608.514 546.5,596.5C 590.188,552.146 634.188,508.146 678.5,464.5 Z"/></g>
</svg>
