<?xml version="1.0" encoding="UTF-8"?>
<!DOCTYPE svg PUBLIC "-//W3C//DTD SVG 1.1//EN" "http://www.w3.org/Graphics/SVG/1.1/DTD/svg11.dtd">
<svg xmlns="http://www.w3.org/2000/svg" version="1.1" width="2000px" height="2000px" style="shape-rendering:geometricPrecision; text-rendering:geometricPrecision; image-rendering:optimizeQuality; fill-rule:evenodd; clip-rule:evenodd" xmlns:xlink="http://www.w3.org/1999/xlink">
<g><path style="opacity:0.988" fill="#393026" d="M 989.5,512.5 C 1015.88,510.172 1041.55,513.339 1066.5,522C 1169.62,568.393 1272.62,615.059 1375.5,662C 1412.61,683.997 1423.44,715.164 1408,755.5C 1397.6,771.964 1383.44,784.131 1365.5,792C 1259.5,837.667 1153.5,883.333 1047.5,929C 1006.63,943.924 965.63,944.257 924.5,930C 827.167,881.667 729.833,833.333 632.5,785C 600.41,765.642 589.243,737.809 599,701.5C 608.063,680.529 623.23,665.696 644.5,657C 742.951,613.608 841.284,569.941 939.5,526C 955.654,519.108 972.32,514.608 989.5,512.5 Z M 1007.5,612.5 C 1015.7,612.887 1023.7,614.387 1031.5,617C 1110.17,652.667 1188.83,688.333 1267.5,724C 1180.83,761.333 1094.17,798.667 1007.5,836C 992.494,840.634 977.494,840.634 962.5,836C 888.555,799.694 814.888,762.861 741.5,725.5C 822.257,688.856 903.257,652.689 984.5,617C 992.134,614.62 999.8,613.12 1007.5,612.5 Z"/></g>
<g><path style="opacity:0.989" fill="#393026" d="M 586.5,801.5 C 602.065,801.246 616.732,804.746 630.5,812C 722.71,857.605 815.044,902.939 907.5,948C 950.941,974.157 974.774,1012.66 979,1063.5C 981.534,1174.16 983.201,1284.83 984,1395.5C 976.143,1433.03 953.143,1453.03 915,1455.5C 900.313,1455.37 886.48,1451.87 873.5,1445C 784.167,1390.33 694.833,1335.67 605.5,1281C 574.699,1256.15 556.533,1223.98 551,1184.5C 541.333,1087.83 531.667,991.167 522,894.5C 517.213,864.098 525.713,838.265 547.5,817C 559.253,808.448 572.253,803.282 586.5,801.5 Z M 626.5,923.5 C 705.268,961.717 783.934,1000.22 862.5,1039C 870.374,1046.25 875.541,1055.08 878,1065.5C 879.803,1154.53 881.47,1243.53 883,1332.5C 812.084,1288.62 740.917,1245.12 669.5,1202C 660.957,1195.79 655.123,1187.62 652,1177.5C 643.301,1092.85 634.801,1008.18 626.5,923.5 Z"/></g>
<g><path style="opacity:0.989" fill="#393026" d="M 1396.5,802.5 C 1440.88,801.059 1467.38,822.059 1476,865.5C 1476.67,875.167 1476.67,884.833 1476,894.5C 1466.33,991.167 1456.67,1087.83 1447,1184.5C 1441.65,1226.73 1421.81,1260.23 1387.5,1285C 1300.83,1338 1214.17,1391 1127.5,1444C 1100.77,1458.46 1073.77,1459.13 1046.5,1446C 1027.64,1433.13 1016.81,1415.29 1014,1392.5C 1015.23,1280.16 1017.23,1167.82 1020,1055.5C 1027,1008.29 1050.84,972.456 1091.5,948C 1185.29,902.272 1278.96,856.272 1372.5,810C 1380.4,806.753 1388.4,804.253 1396.5,802.5 Z M 1370.5,923.5 C 1363.15,1008.36 1354.98,1093.36 1346,1178.5C 1343.11,1186.71 1338.61,1193.88 1332.5,1200C 1260.25,1244.04 1188.08,1288.21 1116,1332.5C 1116.84,1242.82 1118.51,1153.16 1121,1063.5C 1123.51,1053.64 1128.68,1045.47 1136.5,1039C 1214.71,1000.73 1292.71,962.225 1370.5,923.5 Z"/></g>
</svg>
