<?xml version="1.0" encoding="UTF-8"?>
<!DOCTYPE svg PUBLIC "-//W3C//DTD SVG 1.1//EN" "http://www.w3.org/Graphics/SVG/1.1/DTD/svg11.dtd">
<svg xmlns="http://www.w3.org/2000/svg" version="1.1" width="2000px" height="2000px" style="shape-rendering:geometricPrecision; text-rendering:geometricPrecision; image-rendering:optimizeQuality; fill-rule:evenodd; clip-rule:evenodd" xmlns:xlink="http://www.w3.org/1999/xlink">
<g><path style="opacity:0.988" fill="#392f27" d="M 1011.5,235.5 C 1017.3,235.466 1022.96,236.299 1028.5,238C 1121.83,281 1215.17,324 1308.5,367C 1316.71,373.199 1321.54,381.366 1323,391.5C 1323.5,411.164 1323.67,430.831 1323.5,450.5C 1459.58,509.04 1595.58,567.873 1731.5,627C 1773.74,655 1789.24,693.833 1778,743.5C 1773.01,761 1763.84,775.833 1750.5,788C 1698.66,831.675 1646.99,875.508 1595.5,919.5C 1653.51,952.84 1711.84,985.673 1770.5,1018C 1800.89,1048.93 1808.39,1084.77 1793,1125.5C 1785.2,1141.29 1774.03,1154.12 1759.5,1164C 1697.79,1197.19 1635.46,1229.35 1572.5,1260.5C 1571.42,1324.84 1571.25,1389.17 1572,1453.5C 1570.09,1472.84 1560.59,1487.01 1543.5,1496C 1374.34,1582.41 1205.34,1669.08 1036.5,1756C 1016.45,1762.85 997.447,1760.52 979.5,1749C 814.167,1663 648.833,1577 483.5,1491C 467.742,1481.67 458.909,1467.83 457,1449.5C 457.261,1384.1 457.594,1318.76 458,1253.5C 397.422,1222.46 336.922,1191.29 276.5,1160C 243.537,1137.13 231.371,1105.97 240,1066.5C 244.927,1050.14 253.761,1036.31 266.5,1025C 273.204,1020.32 279.871,1015.65 286.5,1011C 337.662,982.587 388.662,953.92 439.5,925C 402.661,893.658 365.994,862.158 329.5,830.5C 293.975,792.044 285.142,748.044 303,698.5C 316.029,670.472 336.196,649.305 363.5,635C 476.997,585.338 590.664,536.171 704.5,487.5C 704.333,455.165 704.5,422.832 705,390.5C 707.321,378.523 713.821,369.69 724.5,364C 814.286,323.607 903.952,282.941 993.5,242C 999.299,238.918 1005.3,236.752 1011.5,235.5 Z M 1014.5,310.5 C 1076.81,338.325 1138.81,366.825 1200.5,396C 1137.67,423.833 1074.83,451.667 1012,479.5C 950.298,452.047 888.798,424.213 827.5,396C 889.924,367.451 952.257,338.951 1014.5,310.5 Z M 775.5,451.5 C 842.177,481.173 908.844,510.839 975.5,540.5C 975.956,595.336 976.623,650.17 977.5,705C 977.167,709.833 976.833,714.667 976.5,719.5C 909.258,688.295 842.091,656.962 775,625.5C 774.366,567.497 774.532,509.497 775.5,451.5 Z M 1250.5,451.5 C 1251.83,458.301 1252.5,465.467 1252.5,473C 1253.1,485.856 1253.1,498.69 1252.5,511.5C 1244.37,509.871 1236.37,510.371 1228.5,513C 1168.93,540.038 1109.43,567.205 1050,594.5C 1049.17,576.491 1049.33,558.491 1050.5,540.5C 1117.27,510.81 1183.93,481.143 1250.5,451.5 Z M 1242.5,584.5 C 1284.53,603.345 1326.53,622.512 1368.5,642C 1325.86,660.763 1283.03,678.93 1240,696.5C 1205.9,682.701 1172.07,668.201 1138.5,653C 1131.63,649.063 1124.63,645.397 1117.5,642C 1159.26,622.784 1200.92,603.618 1242.5,584.5 Z M 702.5,597.5 C 703.332,616.996 703.832,636.662 704,656.5C 706.089,665.577 710.923,672.743 718.5,678C 747.167,691.333 775.833,704.667 804.5,718C 710.745,766.294 616.912,814.461 523,862.5C 482.147,828.07 441.481,793.404 401,758.5C 394.452,746.624 396.285,736.124 406.5,727C 505.374,684.058 604.04,640.891 702.5,597.5 Z M 1488.5,632.5 C 1542.28,654.895 1595.61,678.062 1648.5,702C 1659.4,711.18 1661.57,722.013 1655,734.5C 1605.94,777.567 1556.27,819.9 1506,861.5C 1499.78,858.976 1493.95,855.809 1488.5,852C 1489.23,850.601 1489.73,849.101 1490,847.5C 1490.91,775.799 1490.41,704.132 1488.5,632.5 Z M 1418.5,696.5 C 1419.66,736.331 1419.83,776.331 1419,816.5C 1372,838.167 1325,859.833 1278,881.5C 1277.17,840.829 1277.33,800.163 1278.5,759.5C 1325.44,738.865 1372.1,717.865 1418.5,696.5 Z M 1064.5,697.5 C 1110.72,718.443 1157.05,739.11 1203.5,759.5C 1204.73,799.828 1205.23,840.161 1205,880.5C 1158.58,858.705 1112.08,837.038 1065.5,815.5C 1064.5,776.172 1064.17,736.839 1064.5,697.5 Z M 919.5,772.5 C 944.263,782.796 968.763,793.796 993,805.5C 993.333,819.167 993.667,832.833 994,846.5C 996.351,855.705 1001.52,862.872 1009.5,868C 1082.83,902 1156.17,936 1229.5,970C 1238.95,972.253 1248.28,971.919 1257.5,969C 1299.08,949.962 1340.58,930.795 1382,911.5C 1389.91,915.539 1397.75,919.706 1405.5,924C 1306.78,974.027 1207.78,1023.53 1108.5,1072.5C 1107.3,1036.18 1106.46,999.843 1106,963.5C 1103.24,952.081 1096.74,943.581 1086.5,938C 1015.17,905.333 943.833,872.667 872.5,840C 863.386,837.752 854.386,838.086 845.5,841C 778.167,871.667 710.833,902.333 643.5,933C 642.167,933.667 640.833,933.667 639.5,933C 634.167,930.333 628.833,927.667 623.5,925C 623.833,924.667 624.167,924.333 624.5,924C 723.207,873.981 821.541,823.481 919.5,772.5 Z M 859.5,912.5 C 901.141,931.653 942.807,950.819 984.5,970C 942.485,988.892 900.319,1007.39 858,1025.5C 819.003,1008.75 780.169,991.586 741.5,974C 739.004,972.92 736.67,971.586 734.5,970C 776.257,950.784 817.924,931.618 859.5,912.5 Z M 1499.5,987.5 C 1503.11,987.799 1506.44,988.965 1509.5,991C 1529.25,1001.96 1549.09,1012.79 1569,1023.5C 1569.33,1022.83 1569.67,1022.17 1570,1021.5C 1597.09,1036.96 1624.25,1052.29 1651.5,1067.5C 1664.35,1079.36 1665.35,1092.03 1654.5,1105.5C 1544.15,1161.52 1434.15,1217.35 1324.5,1273C 1311.32,1277.47 1300.48,1274.31 1292,1263.5C 1290.51,1265.82 1288.68,1265.99 1286.5,1264C 1232.5,1235.33 1178.5,1206.67 1124.5,1178C 1237.42,1120.87 1350.08,1063.21 1462.5,1005C 1474.69,998.567 1487.03,992.734 1499.5,987.5 Z M 531.5,993.5 C 536.887,994.19 541.887,996.023 546.5,999C 550.916,1001.96 555.416,1004.79 560,1007.5C 560.333,1007.17 560.667,1006.83 561,1006.5C 677.401,1065.28 793.567,1124.45 909.5,1184C 853.675,1213.08 798.009,1242.41 742.5,1272C 734.488,1273.89 726.488,1273.89 718.5,1272C 611.833,1217.67 505.167,1163.33 398.5,1109C 380.832,1096.38 379.499,1082.38 394.5,1067C 419.833,1052.67 445.167,1038.33 470.5,1024C 491.173,1014.33 511.506,1004.16 531.5,993.5 Z M 1035.5,1024.5 C 1036.66,1052.33 1036.83,1080.33 1036,1108.5C 1027.67,1112.83 1019.33,1117.17 1011,1121.5C 981.401,1105.95 951.567,1090.78 921.5,1076C 959.709,1059.06 997.709,1041.89 1035.5,1024.5 Z M 1064.5,1261.5 C 1133.05,1297.36 1201.55,1333.36 1270,1369.5C 1270.56,1368.98 1271.23,1368.64 1272,1368.5C 1290.62,1375.08 1309.79,1377.25 1329.5,1375C 1342.07,1373.42 1354.07,1369.92 1365.5,1364.5C 1366.09,1364.71 1366.59,1365.04 1367,1365.5C 1401.33,1347.83 1435.67,1330.17 1470,1312.5C 1470.67,1348.17 1470.67,1383.83 1470,1419.5C 1335.18,1488.58 1200.51,1557.91 1066,1627.5C 1065.38,1505.5 1064.88,1383.5 1064.5,1261.5 Z M 957.5,1272.5 C 958.302,1273.95 958.802,1275.62 959,1277.5C 959.842,1393.03 961.009,1508.53 962.5,1624C 962.167,1624.5 961.833,1625 961.5,1625.5C 827.412,1555.37 693.245,1485.37 559,1415.5C 558.167,1378.5 558.333,1341.5 559.5,1304.5C 601.763,1326.8 644.429,1348.3 687.5,1369C 720.512,1380.39 752.845,1378.72 784.5,1364C 842.545,1333.98 900.211,1303.48 957.5,1272.5 Z"/></g>
<g><path style="opacity:0.025" fill="#393026" d="M 1141.5,754.5 C 1142.85,753.203 1144.18,753.37 1145.5,755C 1144.07,755.579 1142.74,755.412 1141.5,754.5 Z"/></g>
<g><path style="opacity:0.054" fill="#393026" d="M 1083.5,779.5 C 1087.06,781.283 1087.06,782.283 1083.5,782.5C 1083.5,781.5 1083.5,780.5 1083.5,779.5 Z"/></g>
</svg>
