<?xml version="1.0" encoding="UTF-8" standalone="no"?>
<!DOCTYPE svg PUBLIC "-//W3C//DTD SVG 1.1//EN" "http://www.w3.org/Graphics/SVG/1.1/DTD/svg11.dtd">
<svg xmlns="http://www.w3.org/2000/svg" version="1.1" viewBox="0.00 0.00 1056.00 668.00">
<path fill="#3b2c22" d="
  M 22.47 52.04
  C 27.05 33.36 41.80 19.32 60.46 15.14
  Q 65.91 13.92 79.29 13.93
  Q 252.16 14.07 424.76 13.98
  C 441.79 13.97 457.76 22.92 466.71 37.02
  C 485.52 66.64 469.41 104.37 436.36 112.62
  Q 430.83 114.00 423.41 114.00
  Q 247.89 114.00 72.59 114.00
  Q 65.17 114.00 59.64 112.70
  C 32.63 106.31 15.81 79.26 22.47 52.04
  Z"
/>
<path fill="#3b2c22" d="
  M 454.58 147.75
  L 248.13 596.45
  A 0.31 0.31 0.0 0 1 247.57 596.45
  L 41.12 147.75
  A 0.31 0.31 0.0 0 1 41.40 147.31
  L 454.30 147.31
  A 0.31 0.31 0.0 0 1 454.58 147.75
  Z
  M 298.48 247.78
  A 0.34 0.34 0.0 0 0 298.17 247.30
  L 197.52 247.30
  A 0.34 0.34 0.0 0 0 197.21 247.78
  L 247.54 357.19
  A 0.34 0.34 0.0 0 0 248.16 357.19
  L 298.48 247.78
  Z"
/>
<path fill="#3b2c22" d="
  M 639.12 459.61
  C 631.92 498.60 623.96 539.40 612.69 576.47
  Q 609.50 586.97 604.54 598.90
  C 596.16 619.07 582.50 637.16 561.01 641.85
  Q 555.15 643.13 544.39 643.11
  Q 437.88 642.86 332.13 643.08
  Q 319.85 643.11 314.83 641.76
  C 288.15 634.59 276.25 604.18 291.23 581.14
  C 298.20 570.43 310.72 562.99 323.88 562.99
  Q 432.49 563.02 532.28 563.01
  Q 532.82 563.01 533.00 562.50
  C 539.76 544.15 544.46 523.87 548.38 505.48
  C 558.64 457.45 566.88 409.31 576.07 361.51
  C 580.79 336.94 585.98 311.69 593.49 287.52
  C 597.99 273.02 604.13 259.15 614.98 249.42
  C 628.51 237.29 647.02 234.32 663.44 241.79
  C 679.15 248.93 688.14 264.02 693.34 280.41
  Q 697.41 293.24 699.92 305.69
  C 707.48 343.24 712.09 382.05 715.86 420.41
  C 718.14 443.70 720.02 464.16 724.33 485.72
  Q 724.55 486.81 725.07 485.83
  Q 735.42 466.54 746.76 445.11
  C 751.74 435.69 757.43 426.32 765.65 419.26
  C 775.40 410.88 788.48 407.39 800.70 409.66
  C 815.29 412.37 826.62 422.27 832.11 436.11
  Q 834.45 441.99 835.85 454.45
  Q 840.76 497.89 845.07 540.54
  A 0.31 0.30 -16.7 0 0 845.52 540.78
  Q 910.03 505.79 970.67 472.61
  Q 980.20 467.39 985.53 466.17
  Q 1003.72 462.00 1018.77 472.91
  C 1038.80 487.42 1040.37 516.60 1022.57 534.00
  Q 1018.85 537.63 1009.25 542.83
  Q 917.79 592.40 831.08 639.82
  C 809.44 651.65 783.04 642.24 773.99 619.36
  Q 771.82 613.89 770.95 604.22
  Q 769.28 585.82 767.23 566.11
  Q 767.15 565.37 766.67 565.93
  C 747.56 588.14 719.28 599.48 692.16 586.07
  C 669.43 574.84 657.94 549.40 651.66 526.24
  Q 644.56 500.03 641.21 472.53
  Q 640.45 466.32 639.52 459.61
  Q 639.35 458.37 639.12 459.61
  Z"
/>
</svg>
