<?xml version="1.0" encoding="UTF-8" standalone="no"?>
<svg
   width="512"
   height="512"
   version="1.1"
   id="svg2"
   sodipodi:docname="cube-signature-solid.svg"
   inkscape:version="1.3 (0e150ed, 2023-07-21)"
   xmlns:inkscape="http://www.inkscape.org/namespaces/inkscape"
   xmlns:sodipodi="http://sodipodi.sourceforge.net/DTD/sodipodi-0.dtd"
   xmlns="http://www.w3.org/2000/svg"
   xmlns:svg="http://www.w3.org/2000/svg">
  <defs
     id="defs2" />
  <sodipodi:namedview
     id="namedview2"
     pagecolor="#ffffff"
     bordercolor="#000000"
     borderopacity="0.25"
     inkscape:showpageshadow="2"
     inkscape:pageopacity="0.0"
     inkscape:pagecheckerboard="0"
     inkscape:deskcolor="#d1d1d1"
     inkscape:zoom="0.4609375"
     inkscape:cx="256"
     inkscape:cy="256"
     inkscape:window-width="1440"
     inkscape:window-height="449"
     inkscape:window-x="0"
     inkscape:window-y="25"
     inkscape:window-maximized="0"
     inkscape:current-layer="svg2" />
  <!--! Font Awesome Pro 6.3.0 by @fontawesome - https://fontawesome.com License - https://fontawesome.com/license (Commercial License) Copyright 2023 Fonticons, Inc. -->
  <g
     id="g2">
    <title
       id="title1">Layer 1</title>
    <path
       fill="#ffffff"
       id="path2"
       d="m234.5,5.7c13.9,-5 29.1,-5 43.1,0l192,68.6c25.4,9.1 42.4,33.2 42.4,60.3l0,242.8c0,27 -17,51.2 -42.5,60.3l-192,68.6c-13.9,5 -29.1,5 -43.1,0l-192,-68.6c-25.4,-9.1 -42.4,-33.2 -42.4,-60.3l0,-242.8c0,-27 17,-51.2 42.5,-60.3l192,-68.6zm21.5,60.3l-173.7,62l173.7,62l173.7,-62l-173.7,-62zm32,368.6l160,-57.1l0,-188l-160,57.1l0,188z" />
    <g
       id="g1">
      <!--! Font Awesome Pro 6.4.2 by @fontawesome - https://fontawesome.com License - https://fontawesome.com/license (Commercial License) Copyright 2023 Fonticons, Inc. -->
      <path
         fill="#bababa"
         d="m347.80001,373.2c0,-6.52688 5.27313,-11.8 11.8,-11.8s11.8,5.27313 11.8,11.8l0,2.87625c0,10.21438 -0.885,20.39188 -2.61813,30.42188l-31.1225,9.32938c-14.97125,4.49875 -25.2225,18.29 -25.2225,33.925l0,26.51313c0,14.75 11.98438,26.73438 26.73438,26.73438c9.5875,0 18.4375,-5.12563 23.19438,-13.45938l5.12563,-8.96063c9.8825,-17.33125 17.14688,-36.02688 21.535,-55.49688l34.81,-10.43563l-4.60938,13.82813c-1.21688,3.61375 -0.59,7.55938 1.6225,10.62s5.78938,4.90438 9.5875,4.90438l47.16313,0c6.52688,0 11.8,-5.27313 11.8,-11.8s-5.27313,-11.8 -11.8,-11.8l-30.8275,0l6.6375,-19.87563c1.40125,-4.16688 0.33188,-8.77625 -2.72875,-11.9475s-7.63313,-4.35125 -11.87375,-3.0975l-45.135,13.57c0.885,-7.63313 1.3275,-15.26625 1.3275,-22.97313l0,-2.87625c0,-19.54375 -15.85625,-35.4 -35.4,-35.4s-35.4,15.85625 -35.4,35.4l0,11.8c0,6.52688 5.27313,11.8 11.8,11.8s11.8,-5.27313 11.8,-11.8l0,-11.8zm-3.3925,65.26875l18.06875,-5.42063c-3.835,12.46375 -9.03438,24.485 -15.52438,35.8425l-5.12563,8.96063c-0.55313,0.95875 -1.58563,1.58563 -2.72875,1.58563c-1.73313,0 -3.13438,-1.40125 -3.13438,-3.13438l0,-26.55c0,-5.19938 3.42938,-9.80875 8.4075,-11.32063l0.03688,0.03688zm-58.5575,23.23125c-4.90438,0 -8.85,3.94563 -8.85,8.85s3.94563,8.85 8.85,8.85l14.86063,0c-0.07375,-1.0325 -0.11063,-2.065 -0.11063,-3.13438l0,-14.56563l-14.75,0zm218.3,17.7c4.90438,0 8.85,-3.94563 8.85,-8.85s-3.94563,-8.85 -8.85,-8.85l-114.34938,0c-2.47063,6.01063 -5.23625,11.91063 -8.22313,17.7l122.5725,0z"
         id="path1" />
    </g>
  </g>
</svg>
