<?xml version="1.0" encoding="UTF-8" standalone="no"?>
<!DOCTYPE svg PUBLIC "-//W3C//DTD SVG 1.1//EN" "http://www.w3.org/Graphics/SVG/1.1/DTD/svg11.dtd">
<svg xmlns="http://www.w3.org/2000/svg" version="1.1" viewBox="0.00 0.00 1196.00 601.00">
<g stroke-width="2.00" fill="none" stroke-linecap="butt">
<path stroke="#957764" vector-effect="non-scaling-stroke" d="
  M 684.06 329.35
  L 865.37 139.50
  A 0.23 0.22 21.4 0 0 865.20 139.12
  L 499.84 139.33"
/>
<path stroke="#8c6048" vector-effect="non-scaling-stroke" d="
  M 499.84 139.33
  L 477.81 139.29
  Q 477.33 139.29 477.66 139.64
  L 671.19 342.31
  A 0.29 0.29 0.0 0 0 671.61 342.31
  L 684.06 329.35"
/>
<path stroke="#e6ab89" vector-effect="non-scaling-stroke" d="
  M 499.84 139.33
  L 681.11 329.17
  A 0.82 0.81 60.4 0 0 681.92 329.40
  Q 683.11 329.06 684.06 329.35"
/>
<path stroke="#957764" vector-effect="non-scaling-stroke" d="
  M 696.03 367.19
  L 888.44 567.43
  Q 888.84 567.85 888.84 567.26
  L 888.86 166.97"
/>
<path stroke="#8c6048" vector-effect="non-scaling-stroke" d="
  M 888.86 166.97
  L 888.88 142.42
  Q 888.88 141.87 888.51 142.26
  L 684.82 355.00
  Q 684.57 355.26 684.82 355.53
  L 696.03 367.19"
/>
<path stroke="#e6ab89" vector-effect="non-scaling-stroke" d="
  M 888.86 166.97
  Q 814.42 244.69 740.16 322.28
  C 725.66 337.44 710.77 352.22 696.03 367.19"
/>
<path stroke="#8c6048" vector-effect="non-scaling-stroke" d="
  M 456.13 543.08
  L 456.19 567.14
  Q 456.19 567.67 456.56 567.28
  L 658.14 355.27
  Q 658.27 355.13 658.14 355.00
  L 646.45 342.91"
/>
<path stroke="#957764" vector-effect="non-scaling-stroke" d="
  M 646.45 342.91
  L 456.68 145.86
  Q 456.11 145.27 456.11 146.09
  L 456.13 543.08"
/>
<path stroke="#e6ab89" vector-effect="non-scaling-stroke" d="
  M 646.45 342.91
  L 456.13 543.08"
/>
<path stroke="#957764" vector-effect="non-scaling-stroke" d="
  M 660.29 380.68
  L 479.33 571.60
  A 0.17 0.17 0.0 0 0 479.45 571.88
  L 841.04 571.88"
/>
<path stroke="#8c6048" vector-effect="non-scaling-stroke" d="
  M 841.04 571.88
  L 864.52 571.87
  A 0.18 0.18 0.0 0 0 864.65 571.57
  L 672.23 368.59
  A 0.34 0.33 -44.4 0 0 671.74 368.59
  L 660.29 380.68"
/>
<path stroke="#e6ab89" vector-effect="non-scaling-stroke" d="
  M 841.04 571.88
  L 840.99 571.58
  Q 840.94 571.26 840.72 571.03
  L 660.29 380.68"
/>
</g>
<path fill="#3a2c23" d="
  M 917.99 601.00
  L 425.99 601.00
  L 426.08 377.11
  Q 426.08 376.71 425.68 376.70
  L 425.43 376.69
  Q 425.27 376.69 425.26 376.85
  Q 423.39 421.72 401.36 459.84
  C 369.97 514.16 314.24 548.63 252.21 557.52
  C 193.54 565.94 133.84 555.77 85.51 521.38
  C 60.95 503.90 41.15 479.83 27.82 452.84
  Q 27.29 451.76 27.29 452.97
  L 27.29 557.50
  Q 27.29 558.04 26.75 558.04
  L 1.21 558.04
  Q 0.55 558.04 0.55 557.38
  Q 0.54 282.56 0.59 7.75
  Q 0.59 4.34 0.74 1.23
  Q 0.77 0.67 1.33 0.67
  L 27.66 0.61
  Q 28.20 0.61 28.20 1.16
  L 28.20 270.26
  Q 28.20 271.51 28.78 270.40
  C 56.78 216.33 108.50 180.46 168.46 169.32
  Q 216.97 160.31 265.87 170.36
  C 314.35 180.32 359.76 207.93 389.25 247.32
  Q 422.54 291.79 425.41 347.82
  Q 425.54 350.36 425.68 347.82
  Q 425.83 345.19 425.84 342.85
  Q 426.20 231.19 425.92 110.08
  A 1.07 1.07 0.0 0 1 426.99 109.00
  L 917.00 109.00
  A 1.00 1.00 0.0 0 1 918.00 110.00
  L 918.00 167.78
  A 0.35 0.34 0.0 0 0 918.35 168.12
  L 998.46 168.12
  Q 999.04 168.12 999.04 167.54
  L 999.04 82.73
  A 0.23 0.23 0.0 0 1 999.27 82.50
  L 1025.99 82.53
  A 0.72 0.71 0.0 0 1 1026.71 83.24
  L 1026.71 167.67
  A 0.45 0.45 0.0 0 0 1027.16 168.12
  L 1168.70 168.12
  Q 1169.29 168.12 1169.29 168.71
  L 1169.29 189.34
  Q 1169.29 189.96 1168.66 189.96
  L 1027.28 189.96
  Q 1026.72 189.96 1026.72 190.52
  Q 1026.63 325.88 1026.79 462.57
  Q 1026.81 474.04 1030.30 486.05
  C 1040.44 520.96 1067.62 536.03 1102.43 538.14
  C 1131.25 539.89 1159.12 533.91 1181.31 515.51
  Q 1181.78 515.12 1182.16 515.60
  L 1195.70 532.83
  A 0.58 0.58 0.0 0 1 1195.61 533.64
  Q 1180.88 545.60 1162.27 551.78
  Q 1132.32 561.73 1098.76 560.01
  C 1074.24 558.75 1049.32 552.31 1030.56 536.03
  C 1008.51 516.90 999.09 490.13 999.08 461.25
  Q 999.03 325.64 999.04 190.29
  Q 999.04 189.96 998.71 189.96
  L 918.54 189.96
  Q 918.01 189.96 918.01 190.49
  L 917.99 601.00
  Z
  M 684.06 329.35
  L 865.37 139.50
  A 0.23 0.22 21.4 0 0 865.20 139.12
  L 499.84 139.33
  L 477.81 139.29
  Q 477.33 139.29 477.66 139.64
  L 671.19 342.31
  A 0.29 0.29 0.0 0 0 671.61 342.31
  L 684.06 329.35
  Z
  M 696.03 367.19
  L 888.44 567.43
  Q 888.84 567.85 888.84 567.26
  L 888.86 166.97
  L 888.88 142.42
  Q 888.88 141.87 888.51 142.26
  L 684.82 355.00
  Q 684.57 355.26 684.82 355.53
  L 696.03 367.19
  Z
  M 456.13 543.08
  L 456.19 567.14
  Q 456.19 567.67 456.56 567.28
  L 658.14 355.27
  Q 658.27 355.13 658.14 355.00
  L 646.45 342.91
  L 456.68 145.86
  Q 456.11 145.27 456.11 146.09
  L 456.13 543.08
  Z
  M 41.18 293.43
  C 29.66 320.92 26.29 352.14 29.05 381.75
  Q 33.34 427.71 59.33 464.17
  C 84.76 499.83 123.77 524.27 166.79 532.99
  C 224.11 544.59 286.04 535.42 332.65 499.76
  Q 378.29 464.84 393.03 408.54
  C 398.00 389.53 399.24 369.05 398.01 349.25
  Q 394.68 295.68 363.23 255.60
  C 333.44 217.63 288.39 195.48 240.70 190.07
  C 184.38 183.69 127.27 195.97 84.72 233.07
  Q 55.98 258.14 41.18 293.43
  Z
  M 660.29 380.68
  L 479.33 571.60
  A 0.17 0.17 0.0 0 0 479.45 571.88
  L 841.04 571.88
  L 864.52 571.87
  A 0.18 0.18 0.0 0 0 864.65 571.57
  L 672.23 368.59
  A 0.34 0.33 -44.4 0 0 671.74 368.59
  L 660.29 380.68
  Z"
/>
<path fill="#dd936d" d="
  M 499.84 139.33
  L 681.11 329.17
  A 0.82 0.81 60.4 0 0 681.92 329.40
  Q 683.11 329.06 684.06 329.35
  L 671.61 342.31
  A 0.29 0.29 0.0 0 1 671.19 342.31
  L 477.66 139.64
  Q 477.33 139.29 477.81 139.29
  L 499.84 139.33
  Z"
/>
<path fill="#efc2a5" d="
  M 684.06 329.35
  Q 683.11 329.06 681.92 329.40
  A 0.82 0.81 60.4 0 1 681.11 329.17
  L 499.84 139.33
  L 865.20 139.12
  A 0.23 0.22 21.4 0 1 865.37 139.50
  L 684.06 329.35
  Z"
/>
<path fill="#dd936d" d="
  M 888.86 166.97
  Q 814.42 244.69 740.16 322.28
  C 725.66 337.44 710.77 352.22 696.03 367.19
  L 684.82 355.53
  Q 684.57 355.26 684.82 355.00
  L 888.51 142.26
  Q 888.88 141.87 888.88 142.42
  L 888.86 166.97
  Z"
/>
<path fill="#efc2a5" d="
  M 646.45 342.91
  L 456.13 543.08
  L 456.11 146.09
  Q 456.11 145.27 456.68 145.86
  L 646.45 342.91
  Z"
/>
<path fill="#efc2a5" d="
  M 888.86 166.97
  L 888.84 567.26
  Q 888.84 567.85 888.44 567.43
  L 696.03 367.19
  C 710.77 352.22 725.66 337.44 740.16 322.28
  Q 814.42 244.69 888.86 166.97
  Z"
/>
<path fill="#dd936d" d="
  M 646.45 342.91
  L 658.14 355.00
  Q 658.27 355.13 658.14 355.27
  L 456.56 567.28
  Q 456.19 567.67 456.19 567.14
  L 456.13 543.08
  L 646.45 342.91
  Z"
/>
<path fill="#dd936d" d="
  M 841.04 571.88
  L 840.99 571.58
  Q 840.94 571.26 840.72 571.03
  L 660.29 380.68
  L 671.74 368.59
  A 0.34 0.33 -44.4 0 1 672.23 368.59
  L 864.65 571.57
  A 0.18 0.18 0.0 0 1 864.52 571.87
  L 841.04 571.88
  Z"
/>
<path fill="#efc2a5" d="
  M 660.29 380.68
  L 840.72 571.03
  Q 840.94 571.26 840.99 571.58
  L 841.04 571.88
  L 479.45 571.88
  A 0.17 0.17 0.0 0 1 479.33 571.60
  L 660.29 380.68
  Z"
/>
</svg>
