<?xml version="1.0" encoding="UTF-8" standalone="no"?>
<!DOCTYPE svg PUBLIC "-//W3C//DTD SVG 1.1//EN" "http://www.w3.org/Graphics/SVG/1.1/DTD/svg11.dtd">
<svg xmlns="http://www.w3.org/2000/svg" version="1.1" viewBox="0.00 0.00 1041.00 1028.00">
<path fill="#3b2c22" d="
  M 992.43 246.28
  L 525.16 472.92
  A 0.31 0.31 0.0 0 1 524.88 472.92
  L 57.60 246.28
  A 0.31 0.31 0.0 0 1 57.60 245.72
  L 524.88 19.08
  A 0.31 0.31 0.0 0 1 525.16 19.08
  L 992.43 245.72
  A 0.31 0.31 0.0 0 1 992.43 246.28
  Z
  M 525.15 130.22
  A 0.32 0.32 0.0 0 0 524.87 130.22
  L 286.74 245.71
  A 0.32 0.32 0.0 0 0 286.74 246.29
  L 524.87 361.79
  A 0.32 0.32 0.0 0 0 525.15 361.79
  L 763.30 246.29
  A 0.32 0.32 0.0 0 0 763.30 245.71
  L 525.15 130.22
  Z"
/>
<path fill="#3b2c22" d="
  M 41.55 275.30
  L 502.62 513.07
  A 0.33 0.33 0.0 0 1 502.80 513.36
  L 505.00 1017.38
  A 0.33 0.33 0.0 0 1 504.49 1017.66
  L 87.15 756.28
  A 0.33 0.33 0.0 0 1 86.99 756.03
  L 41.07 275.62
  A 0.33 0.33 0.0 0 1 41.55 275.30
  Z
  M 158.50 448.12
  A 0.32 0.32 0.0 0 0 158.04 448.43
  L 181.84 697.45
  A 0.32 0.32 0.0 0 0 181.99 697.69
  L 403.73 836.57
  A 0.32 0.32 0.0 0 0 404.22 836.30
  L 403.07 574.43
  A 0.32 0.32 0.0 0 0 402.90 574.15
  L 158.50 448.12
  Z"
/>
<path fill="#3b2c22" d="
  M 962.04 755.81
  L 547.54 1013.66
  A 0.32 0.32 0.0 0 1 547.05 1013.39
  L 548.52 512.94
  A 0.32 0.32 0.0 0 1 548.69 512.66
  L 1007.48 275.32
  A 0.32 0.32 0.0 0 1 1007.94 275.63
  L 962.19 755.57
  A 0.32 0.32 0.0 0 1 962.04 755.81
  Z
  M 867.19 697.05
  A 0.32 0.32 0.0 0 0 867.34 696.81
  L 890.99 448.71
  A 0.32 0.32 0.0 0 0 890.53 448.40
  L 648.50 573.60
  A 0.32 0.32 0.0 0 0 648.33 573.88
  L 647.57 833.09
  A 0.32 0.32 0.0 0 0 648.06 833.36
  L 867.19 697.05
  Z"
/>
</svg>
