<?xml version="1.0" encoding="UTF-8" standalone="no"?>
<!DOCTYPE svg PUBLIC "-//W3C//DTD SVG 1.1//EN" "http://www.w3.org/Graphics/SVG/1.1/DTD/svg11.dtd">
<svg xmlns="http://www.w3.org/2000/svg" version="1.1" viewBox="0.00 0.00 1504.00 1394.00">
<path fill="#3b2c22" d="
  M 1236.18 650.19
  L 1495.66 795.75
  Q 1496.10 795.99 1495.77 796.37
  Q 1495.56 796.62 1495.27 796.77
  Q 1355.75 867.78 1216.51 938.65
  Q 1215.78 939.02 1215.79 939.84
  Q 1216.18 1017.25 1216.79 1094.59
  Q 1216.87 1104.13 1215.48 1109.47
  C 1211.99 1122.90 1203.83 1131.94 1191.77 1138.13
  Q 973.26 1250.23 765.45 1356.97
  C 751.07 1364.36 735.80 1363.12 721.63 1355.74
  Q 514.91 1248.04 296.56 1134.57
  C 284.99 1128.56 276.80 1119.53 273.43 1106.81
  Q 271.90 1101.06 272.00 1088.88
  Q 272.61 1012.96 272.96 932.20
  A 0.40 0.40 0.0 0 0 272.74 931.84
  L 7.02 796.53
  A 0.67 0.67 0.0 0 1 7.00 795.35
  L 257.96 654.51
  A 0.25 0.25 0.0 0 0 258.00 654.09
  L 45.09 473.61
  A 0.42 0.42 0.0 0 1 45.19 472.91
  L 481.01 283.48
  A 1.05 1.04 78.5 0 0 481.63 282.54
  Q 481.88 243.84 482.05 207.02
  Q 482.13 189.43 496.37 180.26
  C 499.58 178.20 504.02 176.97 507.71 175.29
  Q 618.07 125.11 732.43 73.09
  C 741.96 68.75 750.55 69.55 759.88 73.85
  Q 878.79 128.67 991.20 180.20
  Q 993.05 181.05 995.95 183.77
  C 1003.17 190.55 1005.79 198.13 1005.83 208.15
  Q 1005.90 230.13 1006.11 250.77
  A 1.42 1.41 11.7 0 0 1006.97 252.07
  L 1467.36 452.13
  A 0.52 0.52 0.0 0 1 1467.49 453.00
  L 1236.07 649.12
  A 0.66 0.65 39.3 0 0 1236.18 650.19
  Z
  M 584.77 205.47
  A 0.31 0.31 0.0 0 0 584.77 206.03
  L 742.25 277.01
  A 0.31 0.31 0.0 0 0 742.51 277.01
  L 903.20 205.72
  A 0.31 0.31 0.0 0 0 903.21 205.15
  L 745.33 132.56
  A 0.31 0.31 0.0 0 0 745.07 132.56
  L 584.77 205.47
  Z
  M 941.40 302.79
  C 943.06 302.91 944.87 303.50 946.51 303.94
  A 0.45 0.44 -82.1 0 0 947.07 303.51
  L 946.73 251.81
  A 0.30 0.30 0.0 0 0 946.31 251.54
  L 773.70 328.12
  Q 773.22 328.33 773.22 328.85
  L 773.47 374.19
  A 0.35 0.35 0.0 0 0 773.97 374.51
  Q 850.27 339.77 926.22 305.27
  Q 932.91 302.23 941.40 302.79
  Z
  M 712.70 480.54
  A 0.38 0.38 0.0 0 0 713.24 480.19
  L 711.73 328.61
  A 0.38 0.38 0.0 0 0 711.51 328.27
  L 541.68 251.73
  A 0.38 0.38 0.0 0 0 541.15 252.07
  L 540.17 400.40
  A 0.38 0.38 0.0 0 0 540.39 400.74
  L 712.70 480.54
  Z
  M 1002.32 393.90
  Q 973.36 380.79 943.93 367.55
  Q 941.33 366.38 938.72 365.28
  Q 938.16 365.04 937.60 365.29
  Q 884.19 389.59 830.52 414.02
  Q 830.33 414.10 830.25 414.28
  A 0.44 0.44 0.0 0 0 830.48 414.88
  Q 836.21 417.29 842.30 420.16
  C 845.54 421.68 849.20 424.16 852.92 425.80
  Q 889.12 441.80 925.28 457.87
  C 931.03 460.43 935.20 462.37 940.40 460.13
  Q 993.15 437.34 1046.30 414.34
  Q 1047.20 413.96 1046.30 413.57
  Q 1038.95 410.40 1031.32 407.15
  Q 1025.50 404.68 1016.80 400.58
  Q 1009.52 397.16 1002.32 393.90
  Z
  M 328.02 601.21
  L 567.25 478.96
  A 0.18 0.18 0.0 0 0 567.24 478.63
  Q 534.52 463.38 500.28 447.65
  C 491.28 443.51 484.93 437.72 482.05 428.31
  Q 480.51 423.29 480.69 413.33
  Q 481.02 394.57 480.96 376.55
  A 0.38 0.38 0.0 0 0 480.43 376.20
  L 204.05 496.33
  A 0.46 0.46 0.0 0 0 203.94 497.10
  L 326.55 601.03
  A 1.34 1.33 51.7 0 0 328.02 601.21
  Z
  M 1145.61 404.84
  Q 1145.48 404.83 1145.37 404.93
  Q 1145.26 405.03 1145.31 405.17
  Q 1146.36 408.62 1146.71 412.25
  Q 1146.90 414.19 1147.90 580.25
  Q 1147.93 586.15 1145.78 592.70
  Q 1145.63 593.14 1146.04 593.35
  L 1160.54 600.85
  A 1.34 1.33 -51.4 0 0 1162.03 600.68
  L 1308.82 476.29
  A 0.38 0.37 -53.3 0 0 1308.73 475.66
  Q 1227.18 440.23 1146.60 405.10
  Q 1146.11 404.89 1145.61 404.84
  Z
  M 800.56 466.26
  Q 793.90 463.58 787.35 460.43
  Q 786.64 460.08 786.68 460.88
  C 787.02 467.83 785.98 474.22 786.01 481.23
  C 786.10 505.41 785.77 532.66 786.06 560.74
  Q 786.06 561.24 786.51 561.45
  L 905.96 616.78
  A 0.49 0.49 0.0 0 0 906.65 616.34
  L 905.65 514.52
  A 1.18 1.18 0.0 0 0 904.95 513.44
  Q 859.22 493.02 813.68 471.92
  Q 807.38 469.00 800.56 466.26
  Z
  M 966.95 513.65
  A 0.50 0.50 0.0 0 0 966.65 514.11
  L 967.16 617.04
  A 0.50 0.50 0.0 0 0 967.86 617.49
  L 1088.19 562.51
  A 0.50 0.50 0.0 0 0 1088.48 562.06
  L 1087.76 460.80
  A 0.50 0.50 0.0 0 0 1087.05 460.35
  L 966.95 513.65
  Z
  M 924.62 690.88
  C 866.55 663.86 808.12 636.85 749.70 609.91
  Q 740.04 605.46 736.63 602.43
  Q 730.43 596.93 727.69 588.45
  Q 726.36 584.34 726.60 571.11
  Q 726.76 561.63 726.78 553.06
  Q 726.78 552.49 726.26 552.25
  L 666.28 524.46
  A 2.03 2.02 43.8 0 0 664.52 524.49
  L 412.06 653.51
  A 0.46 0.45 45.2 0 0 412.06 654.32
  L 426.90 661.82
  A 2.43 2.41 -43.6 0 0 428.99 661.86
  Q 512.97 623.65 600.97 583.65
  Q 609.43 579.80 617.57 581.04
  Q 622.06 581.73 631.88 586.25
  Q 715.78 624.88 799.47 663.28
  Q 809.11 667.70 811.89 670.19
  C 819.71 677.15 822.14 685.20 822.19 695.93
  Q 822.38 738.88 822.68 779.97
  A 0.42 0.41 76.3 0 0 823.28 780.34
  L 1077.07 653.82
  A 0.36 0.36 0.0 0 0 1077.08 653.18
  L 1057.44 643.04
  A 2.91 2.89 46.1 0 0 1054.90 642.98
  Q 1001.52 667.40 951.04 690.46
  Q 937.25 696.76 924.62 690.88
  Z
  M 505.49 692.29
  A 0.30 0.30 0.0 0 0 505.49 692.83
  L 611.22 740.46
  A 0.30 0.30 0.0 0 0 611.46 740.47
  L 719.60 692.50
  A 0.30 0.30 0.0 0 0 719.61 691.95
  L 613.62 643.21
  A 0.30 0.30 0.0 0 0 613.38 643.21
  L 505.49 692.29
  Z
  M 999.50 953.94
  L 1316.08 792.81
  A 0.24 0.23 51.4 0 0 1316.12 792.42
  Q 1315.59 791.96 1314.96 791.60
  Q 1267.12 764.80 1218.14 737.31
  C 1215.91 736.06 1213.43 735.93 1211.14 734.69
  Q 1184.30 720.18 1160.34 707.15
  C 1156.71 705.17 1148.40 708.75 1144.77 710.62
  Q 986.46 792.00 836.49 868.57
  A 0.25 0.25 0.0 0 0 836.49 869.01
  L 997.53 953.92
  Q 998.52 954.44 999.50 953.94
  Z
  M 656.06 872.94
  C 555.92 822.16 455.85 771.54 355.52 720.71
  C 349.34 717.58 344.47 713.08 337.62 711.22
  A 2.56 2.52 39.4 0 0 335.85 711.38
  C 314.08 721.80 292.33 732.41 271.35 744.22
  Q 227.96 768.63 186.27 791.98
  A 0.38 0.38 0.0 0 0 186.29 792.65
  L 502.72 953.78
  A 1.90 1.89 44.5 0 0 504.45 953.77
  L 656.07 873.80
  A 0.49 0.48 -45.7 0 0 656.06 872.94
  Z
  M 664.87 781.75
  A 0.32 0.32 0.0 0 0 664.85 782.32
  L 741.34 821.04
  A 0.32 0.32 0.0 0 0 741.62 821.04
  L 763.35 810.23
  A 0.32 0.32 0.0 0 0 763.53 809.94
  L 763.07 738.63
  A 0.32 0.32 0.0 0 0 762.62 738.34
  L 664.87 781.75
  Z
  M 997.98 1049.88
  A 0.31 0.31 0.0 0 1 997.70 1049.88
  L 786.69 938.63
  A 0.31 0.31 0.0 0 0 786.23 938.91
  L 787.60 1249.74
  A 0.31 0.31 0.0 0 0 788.05 1250.02
  L 1131.64 1073.64
  A 0.31 0.31 0.0 0 0 1131.81 1073.36
  L 1131.21 982.56
  A 0.31 0.31 0.0 0 0 1130.76 982.29
  L 997.98 1049.88
  Z
  M 697.00 948.08
  L 505.26 1049.22
  Q 504.28 1049.74 503.29 1049.24
  L 358.20 975.35
  A 0.47 0.47 0.0 0 0 357.52 975.77
  L 356.98 1069.77
  Q 356.98 1070.38 357.52 1070.66
  Q 528.32 1159.50 699.07 1248.45
  Q 699.57 1248.71 699.96 1248.65
  A 0.42 0.41 86.0 0 0 700.31 1248.24
  L 697.67 948.48
  Q 697.66 947.73 697.00 948.08
  Z"
/>
</svg>
